<?xml version="1.0" encoding="utf-8" standalone="no"?>
<!DOCTYPE svg PUBLIC "-//W3C//DTD SVG 1.1//EN"
  "http://www.w3.org/Graphics/SVG/1.1/DTD/svg11.dtd">
<!-- Created with matplotlib (https://matplotlib.org/) -->
<svg height="297.190125pt" version="1.1" viewBox="0 0 391.245 297.190125" width="391.245pt" xmlns="http://www.w3.org/2000/svg" xmlns:xlink="http://www.w3.org/1999/xlink">
 <defs>
  <style type="text/css">
*{stroke-linecap:butt;stroke-linejoin:round;}
  </style>
 </defs>
 <g id="figure_1">
  <g id="patch_1">
   <path d="M 0 297.190125 
L 391.245 297.190125 
L 391.245 0 
L 0 0 
z
" style="fill:#ffffff;"/>
  </g>
  <g id="axes_1">
   <g id="line2d_1">
    <path clip-path="url(#p875140d043)" d="M 26.925 210.609969 
L 30.532273 212.922018 
L 34.139545 215.189746 
L 37.746818 217.413153 
L 41.354091 219.592238 
L 44.961364 221.727003 
L 48.568636 223.817445 
L 52.175909 225.863567 
L 55.783182 227.865367 
L 59.390455 229.822847 
L 62.997727 231.736004 
L 66.605 233.604841 
L 70.212273 235.429356 
L 73.819545 237.20955 
L 77.426818 238.945423 
L 81.034091 240.636975 
L 84.641364 242.284205 
L 88.248636 243.887114 
L 91.855909 245.445702 
L 95.463182 246.959969 
L 99.070455 248.429914 
L 102.677727 249.855538 
L 106.285 251.236841 
L 109.892273 252.573823 
L 113.499545 253.866483 
L 117.106818 255.114822 
L 120.714091 256.31884 
L 124.321364 257.478536 
L 127.928636 258.593912 
L 131.535909 259.664966 
L 135.143182 260.691698 
L 138.750455 261.67411 
L 142.357727 262.6122 
L 145.965 263.505969 
L 149.572273 264.355417 
L 153.179545 265.160544 
L 156.786818 265.921349 
L 160.394091 266.637833 
L 164.001364 267.309996 
L 167.608636 267.937837 
L 171.215909 268.521357 
L 174.823182 269.060556 
L 178.430455 269.555434 
L 182.037727 270.00599 
L 185.645 270.412226 
L 189.252273 270.77414 
L 192.859545 271.091732 
L 196.466818 271.365004 
L 200.074091 271.593954 
L 203.681364 271.778583 
L 207.288636 271.918891 
L 210.895909 272.014877 
L 214.503182 272.066542 
L 218.110455 272.073886 
L 221.717727 272.036909 
L 225.325 271.95561 
L 228.932273 271.82999 
L 232.539545 271.660049 
L 236.146818 271.445787 
L 239.754091 271.187203 
L 243.361364 270.884299 
L 246.968636 270.537072 
L 250.575909 270.145525 
L 254.183182 269.709656 
L 257.790455 269.229467 
L 261.397727 268.704955 
L 265.005 268.136123 
L 268.612273 267.522969 
L 272.219545 266.865495 
L 275.826818 266.163698 
L 279.434091 265.417581 
L 283.041364 264.627142 
L 286.648636 263.792382 
L 290.255909 262.913301 
L 293.863182 261.989899 
L 297.470455 261.022175 
L 301.077727 260.01013 
L 304.685 258.953764 
L 308.292273 257.853077 
L 311.899545 256.708068 
L 315.506818 255.518738 
L 319.114091 254.285087 
L 322.721364 253.007114 
L 326.328636 251.684821 
L 329.935909 250.318206 
L 333.543182 248.90727 
L 337.150455 247.452012 
L 340.757727 245.952433 
L 344.365 244.408533 
L 347.972273 242.820312 
L 351.579545 241.18777 
L 355.186818 239.510906 
L 358.794091 237.789721 
L 362.401364 236.024215 
L 366.008636 234.214387 
L 369.615909 232.360238 
L 373.223182 230.461768 
L 376.830455 228.518977 
L 380.437727 226.531865 
L 384.045 224.500431 
" style="fill:none;stroke:#000000;stroke-linecap:square;stroke-width:1.5;"/>
   </g>
  </g>
 </g>
 <defs>
  <clipPath id="p875140d043">
   <rect height="266.112" width="357.12" x="26.925" y="7.2"/>
  </clipPath>
 </defs>
</svg>
