<?xml version="1.0" encoding="utf-8"?>
<!-- Generator: Adobe Illustrator 24.2.1, SVG Export Plug-In . SVG Version: 6.00 Build 0)  -->
<svg version="1.1" id="Layer_1" xmlns="http://www.w3.org/2000/svg" xmlns:xlink="http://www.w3.org/1999/xlink" x="0px" y="0px"
	 viewBox="0 0 391.2 297.2" style="enable-background:new 0 0 391.2 297.2;" xml:space="preserve">
<style type="text/css">
	.st0{fill:none;stroke:#000000;stroke-width:1.5;stroke-linecap:square;stroke-linejoin:round;}
</style>
<g id="figure_1">
	<g id="axes_1">
		<g id="line2d_1">
			<g>
				<path class="st0" d="M26.9,110.6c1.2,0.8,2.4,1.5,3.6,2.3l3.6,2.3l3.6,2.2l3.6,2.2l3.6,2.1l3.6,2.1l3.6,2l3.6,2l3.6,2l3.6,1.9
					l3.6,1.9l3.6,1.8l3.6,1.8l3.6,1.7l3.6,1.7l3.6,1.6l3.6,1.6l3.6,1.6l3.6,1.5l3.6,1.5l3.6,1.4l3.6,1.4l3.6,1.3l3.6,1.3l3.6,1.2
					l3.6,1.2l3.6,1.2l3.6,1.1l3.6,1.1l3.6,1l3.6,1l3.6,0.9l3.6,0.9l3.6,0.8l3.6,0.8l3.6,0.8l3.6,0.7l3.6,0.7l3.6,0.6l3.6,0.6
					l3.6,0.5l3.6,0.5l3.6,0.5l3.6,0.4l3.6,0.4l3.6,0.3l3.6,0.3l3.6,0.2l3.6,0.2l3.6,0.1l3.6,0.1l3.6,0.1l3.6,0l3.6,0l3.6-0.1
					l3.6-0.1l3.6-0.2l3.6-0.2l3.6-0.3l3.6-0.3l3.6-0.3l3.6-0.4l3.6-0.4l3.6-0.5l3.6-0.5l3.6-0.6l3.6-0.6l3.6-0.7l3.6-0.7l3.6-0.7
					l3.6-0.8l3.6-0.8l3.6-0.9l3.6-0.9l3.6-1l3.6-1l3.6-1.1l3.6-1.1l3.6-1.1l3.6-1.2l3.6-1.2l3.6-1.3l3.6-1.3l3.6-1.4l3.6-1.4
					l3.6-1.5l3.6-1.5l3.6-1.5l3.6-1.6l3.6-1.6l3.6-1.7l3.6-1.7l3.6-1.8l3.6-1.8l3.6-1.9l3.6-1.9l3.6-1.9l3.6-2l3.6-2
					c4.2,17.3,5.6,37.6-3,56.5c-41.1,89.2-288.9,99.8-344,2C24.4,160.6,23.2,134.9,26.9,110.6z"/>
			</g>
		</g>
	</g>
</g>
</svg>
